<?xml version="1.0" encoding="utf-8"?>
<!-- Generator: Adobe Illustrator 26.0.3, SVG Export Plug-In . SVG Version: 6.00 Build 0)  -->
<svg version="1.1" id="圖層_1" xmlns="http://www.w3.org/2000/svg" xmlns:xlink="http://www.w3.org/1999/xlink" x="0px" y="0px"
	 viewBox="0 0 800 800" style="enable-background:new 0 0 800 800;" xml:space="preserve">
<style type="text/css">
	.st0{fill:#FFFFFF;}
</style>
<g>
	<g>
		<path class="st0" d="M133.1,751.66c0-12.15,8.03-19.19,17.28-19.19c4.73,0,8.54,2.23,11.01,4.75l-4.36,5.31
			c-1.84-1.71-3.81-2.91-6.46-2.91c-5.02,0-8.98,4.43-8.98,11.76c0,7.52,3.5,11.9,8.85,11.9c3.01,0,5.37-1.48,7.16-3.42l4.36,5.2
			c-3.04,3.53-7.08,5.37-11.82,5.37C140.85,770.42,133.1,763.98,133.1,751.66z"/>
		<path class="st0" d="M173.12,733.14h13.18c7.76,0,14.13,2.7,14.13,11.4c0,8.41-6.36,12.03-14.13,12.03h-4.91v13.17h-8.28V733.14z
			 M185.63,750c4.35,0,6.69-1.86,6.69-5.46c0-3.62-2.34-4.83-6.69-4.83h-4.23V750H185.63z M184.79,754.39l5.72-5.3l11.68,20.65
			h-9.26L184.79,754.39z"/>
		<path class="st0" d="M213.15,733.14h22.94v6.94h-14.66v7.35h12.48v6.94h-12.48v8.43h15.22v6.94h-23.5V733.14z"/>
		<path class="st0" d="M256.34,733.14h9.9l11.5,36.61h-8.76l-4.79-18.54c-1.02-3.66-1.99-7.99-2.97-11.81h-0.22
			c-0.89,3.87-1.86,8.15-2.88,11.81l-4.81,18.54h-8.46L256.34,733.14z M252.42,754.59h17.61v6.43h-17.61V754.59z"/>
		<path class="st0" d="M290.37,740.08h-10.08v-6.94h28.43v6.94h-10.07v29.67h-8.28V740.08z"/>
		<path class="st0" d="M320.04,733.14h22.94v6.94h-14.66v7.35h12.48v6.94h-12.48v8.43h15.22v6.94h-23.5V733.14z"/>
		<path class="st0" d="M379.54,756.69l-11.03-23.55h8.85l3.27,8.41c0.98,2.74,1.94,5.28,2.98,8.11h0.22
			c1.05-2.84,2.09-5.37,3.09-8.11l3.27-8.41h8.65l-11.03,23.55v13.06h-8.28V756.69z"/>
		<path class="st0" d="M405.6,751.28c0-11.96,6.75-18.82,16.62-18.82s16.63,6.9,16.63,18.82c0,11.96-6.75,19.13-16.63,19.13
			S405.6,763.24,405.6,751.28z M430.37,751.28c0-7.34-3.15-11.67-8.14-11.67c-4.99,0-8.14,4.33-8.14,11.67
			c0,7.34,3.15,11.99,8.14,11.99C427.22,763.27,430.37,758.62,430.37,751.28z"/>
		<path class="st0" d="M451.14,752.78v-19.64h8.28v20.49c0,7.17,2.26,9.65,6.35,9.65c4.12,0,6.49-2.48,6.49-9.65v-20.49h7.98v19.64
			c0,12.29-4.99,17.64-14.46,17.64C456.3,770.42,451.14,765.07,451.14,752.78z"/>
		<path class="st0" d="M494.3,733.14h13.18c7.76,0,14.13,2.7,14.13,11.4c0,8.41-6.36,12.03-14.13,12.03h-4.91v13.17h-8.28V733.14z
			 M506.8,750c4.35,0,6.69-1.86,6.69-5.46c0-3.62-2.34-4.83-6.69-4.83h-4.23V750H506.8z M505.96,754.39l5.72-5.3l11.68,20.65h-9.26
			L505.96,754.39z"/>
		<path class="st0" d="M551.16,733.14h8.28v29.67h14.45v6.94h-22.72V733.14z"/>
		<path class="st0" d="M585.86,733.14h8.28v36.61h-8.28V733.14z"/>
		<path class="st0" d="M608.37,733.14h23.1v6.94h-14.83v8.49h12.67v6.94h-12.67v14.24h-8.28V733.14z"/>
		<path class="st0" d="M643.4,733.14h22.94v6.94h-14.66v7.35h12.48v6.94h-12.48v8.43h15.22v6.94h-23.5V733.14z"/>
	</g>
	<path class="st0" d="M400,29.58L0,292.74h44.35L400,58.76c0,0,257.55,169.44,355.65,233.98H800L400,29.58z"/>
	<g>
		<g>
			<path class="st0" d="M201.09,328.8l-2.63,3.62c14.8,12.17,29.71,24.78,44.74,37.83l-8.39,10.03c-1.75-1.64-3.51-3.34-5.26-5.1
				v61.18h-11.18v-5.59H163.1c-2.74,19.85-8.88,38.05-18.42,54.61c-2.74-2.52-6.03-5.26-9.87-8.22
				c12.39-19.96,18.59-43.86,18.59-71.71v-25.16c-3.73,3.07-7.57,6.03-11.51,8.88c-2.08-3.4-4.55-6.91-7.4-10.53
				c19.3-12.5,36.79-29.11,52.47-49.84H201.09z M192.05,340.48c-9.76,12.17-19.9,23.03-30.43,32.57h65.79
				C215.35,361.75,203.56,350.89,192.05,340.48z M163.26,442.62h67.27v44.9h-11.18v-8.06h-44.9v8.06h-11.18V442.62z M164.25,420.58
				h54.11v-13.65h-53.45C164.8,411.64,164.58,416.19,164.25,420.58z M218.36,383.24h-53.45v13.82h53.45V383.24z M219.35,452.81
				h-44.9v16.45h44.9V452.81z M183.99,356.93l9.7-4.77c3.51,5.7,6.47,10.91,8.88,15.62l-10.03,4.61
				C190.35,367.45,187.49,362.3,183.99,356.93z M277.41,330.44h12.17v135.03c0,14.47-6.91,21.71-20.72,21.71
				c-7.89,0-15.24-0.11-22.04-0.33c-0.33-3.84-1.15-8.33-2.47-13.49c6.58,0.99,13.65,1.48,21.22,1.48c7.89,0,11.84-4.06,11.84-12.17
				V330.44z M246.82,344.1h11.84v106.58h-11.84V344.1z"/>
			<path class="st0" d="M321.88,339.49h49.34v-11.84h12.17v11.84h37.83v-11.84h12.17v11.84h49.67v10.2h-49.67v7.24h-12.17v-7.24
				h-37.83v7.24h-12.17v-7.24h-49.34V339.49z M322.21,451.66h159.87v9.87h-45.39c11.18,7.79,20.34,14.36,27.47,19.74l-7.4,9.05
				c-4.17-3.62-8.33-7.07-12.5-10.36c-31.25,1.1-58.22,2.47-80.92,4.11c-4.28,0.33-9.1,1.04-14.47,2.14l-4.28-10.69
				c5.59-1.21,13.49-5.87,23.68-13.98h-46.05V451.66z M372.21,393.11l3.29-7.57h-21.55l3.62,7.57c-10.42,4.5-20.61,8.28-30.59,11.35
				l-3.45-9.21c11.4-3.18,21.22-6.41,29.44-9.7h-24.67v-7.89h31.91v-7.57h-25.66v-7.57h25.66v-7.07h10.53v7.07h25.33v7.57h-25.33
				v7.57h31.25v7.89h-25.33c9.98,3.29,19.85,6.91,29.61,10.86l-3.78,9.21C392.38,401,382.3,396.84,372.21,393.11z M327.8,418.93
				l32.4-0.82v-7.57h-22.37v-7.57h22.37v-8.72h10.53v8.72h22.04v7.57h-22.04v7.24c9.21-0.33,18.42-0.71,27.63-1.15
				c-0.55,2.41-0.93,5.04-1.15,7.89c-24.12,0.99-46.82,2.19-68.09,3.62L327.8,418.93z M461.68,443.44H342.93v-9.54h118.75V443.44z
				 M424.02,464.98l3.45-3.45H382.9c-5.26,4.39-10.47,8.5-15.62,12.34c20.5-0.66,42.6-1.37,66.28-2.14
				C430.38,469.32,427.2,467.07,424.02,464.98z M408.23,392.62l5.26-8.55c3.62,1.97,7.4,4.06,11.35,6.25
				c0.55-4.39,0.88-9.7,0.99-15.95h-18.59v-9.87h18.59v-6.74h10.53v6.74h27.14c-0.66,22.37-0.49,37.88,0.49,46.55
				c0.77,5.15,2.25,7.73,4.44,7.73c1.64,0,2.85-1.1,3.62-3.29c1.54-4.71,2.52-11.18,2.96-19.41c3.29,1.43,6.69,2.69,10.2,3.78
				c-0.77,8.33-1.86,14.91-3.29,19.74c-2.63,7.46-6.85,11.18-12.66,11.18c-8.55,0-13.71-5.98-15.46-17.93
				c-0.77-9.32-0.99-22.15-0.66-38.49h-16.78c-0.11,8.88-0.66,16.06-1.64,21.55c4.5,2.63,9.1,5.32,13.82,8.06l-5.92,9.7
				c-3.62-2.41-7.29-4.77-11.02-7.07c-4.06,8.77-11.9,16.39-23.52,22.86c-2.3-3.18-4.77-6.14-7.4-8.88
				c11.07-5.59,18.26-12.17,21.55-19.74C417.71,398.1,413.05,395.36,408.23,392.62z"/>
		</g>
		<g>
			<path class="st0" d="M384.86,666.19c24.89,0.66,57.07,0.44,96.55-0.66c-1.86,4.39-3.67,8.61-5.43,12.66
				c-37.83,0.66-68.7,0.6-92.6-0.16c-17.65-0.22-30.87-6.47-39.64-18.75c-3.18,2.52-9.59,9.54-19.24,21.05l-7.07-13.98
				c6.91-6.25,13.71-12.23,20.39-17.93v-57.4h-18.75v-12.01h31.58v71.88C358.55,660.65,369.95,665.75,384.86,666.19z M334.37,521.95
				c8.11,9.54,16.56,20.23,25.33,32.07l-11.84,7.89c-7.13-10.96-15.02-21.82-23.68-32.57L334.37,521.95z M370.39,530.5h97.7v124.34
				h-11.84v-8.06h-74.01v8.06h-11.84V530.5z M456.24,541.35h-74.01v94.57h74.01V541.35z M396.38,558.79h45.72v60.86h-11.51v-6.09
				h-22.7v6.74h-11.51V558.79z M430.59,569.64h-22.7v33.06h22.7V569.64z"/>
			<path class="st0" d="M530.49,596.12c0.11,38.38-5.98,66.61-18.26,84.7c-2.85-3.73-6.09-7.24-9.7-10.53
				c10.64-14.36,15.95-37.12,15.95-68.26v-63.16h68.91c-2.41-4.06-5.15-8.44-8.22-13.16l11.18-6.09c3.4,4.93,7.4,11.35,12.01,19.24
				h63.16v11.51H530.49V596.12z M579.67,632.47c7.57,9.54,15.19,20.61,22.86,33.22l-11.02,6.09c-2.19-4.5-4.82-9.1-7.89-13.82
				c-9.76,4.71-18.86,9.65-27.3,14.8c-2.3,1.32-5.26,3.62-8.88,6.91l-9.38-12.34c3.4-3.18,5.1-6.8,5.1-10.86v-87.83h20.56
				c-1.64-3.4-3.73-7.35-6.25-11.84l10.53-5.1c3.18,5.15,6.14,10.8,8.88,16.94h17.93v63.65h-11.51v-3.78h-28.62v31.58
				c7.46-3.62,15.19-7.35,23.19-11.18c-2.19-3.51-4.88-7.13-8.06-10.86L579.67,632.47z M583.28,578.53h-28.62v15.3h28.62V578.53z
				 M554.67,618.66h28.62v-15.3h-28.62V618.66z M660.26,637.57c2.08,16.23-3.89,25.33-17.93,27.3c-4.93,0.66-11.29,0.44-19.08-0.66
				c-0.44-3.51-1.21-7.95-2.3-13.32c7.24,1.32,12.99,1.97,17.27,1.97c8.33,0,11.62-5.26,9.87-15.79
				c-1.43-7.89-7.95-16.83-19.57-26.81c5.04-8.99,10.86-20.89,17.43-35.69H619.8v108.88h-11.51v-119.9h50.66v11.84
				c-5.15,10.86-10.64,21.66-16.45,32.4C653.24,617.34,659.16,627.26,660.26,637.57z"/>
		</g>
	</g>
</g>
</svg>
