<?xml version="1.0" encoding="utf-8"?>
<!-- Generator: Adobe Illustrator 26.0.3, SVG Export Plug-In . SVG Version: 6.00 Build 0)  -->
<svg version="1.1" id="圖層_1" xmlns="http://www.w3.org/2000/svg" xmlns:xlink="http://www.w3.org/1999/xlink" x="0px" y="0px"
	 viewBox="0 0 800 800" style="enable-background:new 0 0 800 800;" xml:space="preserve">
<style type="text/css">
	.st0{fill:#FFFFFF;}
</style>
<g>
	<g>
		<g>
			<path class="st0" d="M138.54,489.81c0-15.18,9.5-24.2,21.25-24.2c5.82,0,10.44,2.78,13.36,5.87l-4.4,5.3
				c-2.38-2.38-5.16-4.03-8.79-4.03c-7.55,0-12.97,6.38-12.97,16.79c0,10.58,4.99,16.99,12.77,16.99c4.11,0,7.29-1.9,9.9-4.77
				l4.4,5.16c-3.76,4.37-8.6,6.75-14.61,6.75C147.78,513.69,138.54,505.15,138.54,489.81z"/>
			<path class="st0" d="M188.9,466.46h15.63c9.65,0,17.08,3.41,17.08,13.76c0,9.97-7.43,14.5-17.08,14.5h-7.4v18.13h-8.23V466.46z
				 M203.68,488.13c6.35,0,9.82-2.64,9.82-7.91c0-5.34-3.46-7.18-9.82-7.18h-6.55v15.09H203.68z M202.98,492.52l5.96-4.91
				l14.48,25.23h-9.25L202.98,492.52z"/>
			<path class="st0" d="M237.95,466.46h27.92v6.92h-19.69v11.89h16.68v6.92h-16.68v13.73h20.4v6.92h-28.62V466.46z"/>
			<path class="st0" d="M292.26,466.46h9.65l15.12,46.38h-8.71l-7.06-24.68c-1.48-4.91-2.84-10.2-4.2-15.29h-0.28
				c-1.28,5.13-2.64,10.38-4.11,15.29l-7.12,24.68h-8.4L292.26,466.46z M286.08,493.82h21.84v6.45h-21.84V493.82z"/>
			<path class="st0" d="M334.65,473.38h-13.39v-6.92h35.01v6.92h-13.39v39.46h-8.23V473.38z"/>
			<path class="st0" d="M371.09,466.46H399v6.92h-19.69v11.89H396v6.92h-16.68v13.73h20.4v6.92h-28.62V466.46z"/>
			<path class="st0" d="M445.33,495.59l-13.96-29.14h8.79l5.05,11.86c1.36,3.45,2.67,6.67,4.13,10.2h0.28
				c1.46-3.53,2.92-6.75,4.27-10.2l5.05-11.86h8.57l-13.96,29.14v17.25h-8.23V495.59z"/>
			<path class="st0" d="M476.62,489.47c0-15.01,8.37-23.86,20.45-23.86s20.45,8.89,20.45,23.86c0,15.01-8.37,24.23-20.45,24.23
				S476.62,504.47,476.62,489.47z M509.07,489.47c0-10.41-4.71-16.71-12-16.71c-7.29,0-12,6.3-12,16.71c0,10.41,4.71,17.08,12,17.08
				C504.36,506.54,509.07,499.88,509.07,489.47z"/>
			<path class="st0" d="M533.7,492.5v-26.04h8.23v26.67c0,10.1,3.77,13.42,9.39,13.42c5.67,0,9.59-3.32,9.59-13.42v-26.67h7.92
				v26.04c0,15.24-6.75,21.19-17.5,21.19C540.57,513.69,533.7,507.74,533.7,492.5z"/>
			<path class="st0" d="M587.45,466.46h15.63c9.65,0,17.08,3.41,17.08,13.76c0,9.97-7.43,14.5-17.08,14.5h-7.4v18.13h-8.23V466.46z
				 M602.23,488.13c6.35,0,9.82-2.64,9.82-7.91c0-5.34-3.46-7.18-9.82-7.18h-6.55v15.09H602.23z M601.54,492.52l5.96-4.91
				l14.48,25.23h-9.25L601.54,492.52z"/>
			<path class="st0" d="M657.78,466.46H666v39.46h19.26v6.92h-27.49V466.46z"/>
			<path class="st0" d="M700.45,466.46h8.23v46.38h-8.23V466.46z"/>
			<path class="st0" d="M727.54,466.46h28.03v6.92h-19.8v13.16h16.85v6.92h-16.85v19.38h-8.23V466.46z"/>
			<path class="st0" d="M770.78,466.46h27.92v6.92h-19.69v11.89h16.68v6.92h-16.68v13.73h20.4v6.92h-28.62V466.46z"/>
		</g>
		<g>
			<path class="st0" d="M200.51,288.27l-2.42,3.32c13.6,11.18,27.3,22.77,41.1,34.76l-7.71,9.22c-1.61-1.51-3.22-3.07-4.84-4.68
				v56.21h-10.28v-5.14H165.6c-2.52,18.23-8.16,34.96-16.92,50.17c-2.52-2.32-5.54-4.84-9.07-7.56
				c11.38-18.34,17.08-40.3,17.08-65.89v-23.12c-3.43,2.82-6.95,5.54-10.58,8.16c-1.91-3.12-4.18-6.35-6.8-9.67
				c17.73-11.48,33.8-26.75,48.21-45.79H200.51z M192.19,299c-8.97,11.18-18.28,21.16-27.96,29.92h60.45
				C213.6,318.55,202.77,308.57,192.19,299z M165.75,392.84h61.81v41.25h-10.28v-7.4h-41.25v7.4h-10.28V392.84z M166.66,372.59
				h49.72v-12.54h-49.11C167.16,364.38,166.96,368.56,166.66,372.59z M216.37,338.29h-49.11v12.69h49.11V338.29z M217.28,402.21
				h-41.25v15.11h41.25V402.21z M184.79,314.11l8.92-4.38c3.22,5.24,5.94,10.02,8.16,14.36l-9.22,4.23
				C190.63,323.78,188.01,319.05,184.79,314.11z M270.62,289.78h11.18v124.06c0,13.3-6.35,19.95-19.04,19.95
				c-7.25,0-14-0.1-20.25-0.3c-0.3-3.53-1.06-7.66-2.27-12.39c6.04,0.91,12.54,1.36,19.49,1.36c7.25,0,10.88-3.73,10.88-11.18
				V289.78z M242.51,302.33h10.88v97.92h-10.88V302.33z"/>
			<path class="st0" d="M311.48,298.1h45.33v-10.88H368v10.88h34.76v-10.88h11.18v10.88h45.64v9.37h-45.64v6.65h-11.18v-6.65H368
				v6.65h-11.18v-6.65h-45.33V298.1z M311.78,401.15h146.88v9.07h-41.71c10.28,7.15,18.69,13.2,25.24,18.13l-6.8,8.31
				c-3.83-3.32-7.66-6.5-11.48-9.52c-28.71,1.01-53.49,2.27-74.35,3.78c-3.93,0.3-8.36,0.96-13.3,1.96l-3.93-9.82
				c5.14-1.11,12.39-5.39,21.76-12.84h-42.31V401.15z M357.72,347.36l3.02-6.95h-19.8l3.32,6.95c-9.57,4.13-18.94,7.61-28.11,10.43
				l-3.17-8.46c10.48-2.92,19.49-5.89,27.05-8.92h-22.67v-7.25h29.32v-6.95h-23.57v-6.95h23.57v-6.5h9.67v6.5h23.27v6.95h-23.27
				v6.95h28.71v7.25H361.8c9.17,3.02,18.23,6.35,27.2,9.97l-3.48,8.46C376.26,354.61,366.99,350.78,357.72,347.36z M316.92,371.08
				l29.77-0.76v-6.95h-20.55v-6.95h20.55v-8.01h9.67v8.01h20.25v6.95h-20.25v6.65c8.46-0.3,16.92-0.65,25.39-1.06
				c-0.5,2.22-0.86,4.63-1.06,7.25c-22.16,0.91-43.02,2.01-62.56,3.32L316.92,371.08z M439.93,393.6h-109.1v-8.76h109.1V393.6z
				 M405.32,413.39l3.17-3.17h-40.95c-4.84,4.03-9.62,7.81-14.36,11.33c18.84-0.6,39.14-1.26,60.9-1.96
				C411.17,417.37,408.24,415.31,405.32,413.39z M390.82,346.9l4.84-7.86c3.32,1.81,6.8,3.73,10.43,5.74
				c0.5-4.03,0.81-8.92,0.91-14.66h-17.08v-9.07h17.08v-6.2h9.67v6.2h24.93c-0.6,20.55-0.45,34.81,0.45,42.76
				c0.71,4.73,2.07,7.1,4.08,7.1c1.51,0,2.62-1.01,3.32-3.02c1.41-4.33,2.32-10.28,2.72-17.83c3.02,1.31,6.15,2.47,9.37,3.48
				c-0.71,7.66-1.71,13.7-3.02,18.13c-2.42,6.85-6.3,10.28-11.64,10.28c-7.86,0-12.59-5.49-14.2-16.47
				c-0.71-8.56-0.91-20.35-0.6-35.36h-15.41c-0.1,8.16-0.6,14.76-1.51,19.8c4.13,2.42,8.36,4.89,12.69,7.4l-5.44,8.92
				c-3.32-2.22-6.7-4.38-10.12-6.5c-3.73,8.06-10.93,15.06-21.61,21c-2.12-2.92-4.38-5.64-6.8-8.16
				c10.17-5.14,16.77-11.18,19.8-18.13C399.53,351.94,395.25,349.42,390.82,346.9z"/>
			<path class="st0" d="M542.14,420.95c22.87,0.6,52.44,0.4,88.7-0.6c-1.71,4.03-3.37,7.91-4.99,11.64
				c-34.76,0.6-63.11,0.55-85.08-0.15c-16.22-0.2-28.36-5.94-36.42-17.23c-2.92,2.32-8.81,8.76-17.68,19.34l-6.5-12.84
				c6.35-5.74,12.59-11.23,18.74-16.47v-52.74H481.7v-11.03h29.01v66.04C517.96,415.86,528.44,420.55,542.14,420.95z M495.75,288.42
				c7.45,8.76,15.21,18.59,23.27,29.47l-10.88,7.25c-6.55-10.07-13.8-20.05-21.76-29.92L495.75,288.42z M528.84,296.28h89.76v114.24
				h-10.88v-7.4h-68v7.4h-10.88V296.28z M607.72,306.26h-68v86.89h68V306.26z M552.72,322.27h42.01v55.91h-10.58v-5.59H563.3v6.2
				h-10.58V322.27z M584.15,332.25H563.3v30.37h20.85V332.25z"/>
			<path class="st0" d="M675.94,356.58c0.1,35.26-5.49,61.2-16.77,77.82c-2.62-3.43-5.59-6.65-8.92-9.67
				c9.77-13.2,14.66-34.1,14.66-62.71v-58.03h63.32c-2.22-3.73-4.73-7.76-7.56-12.09l10.28-5.59c3.12,4.53,6.8,10.43,11.03,17.68
				H800v10.58H675.94V356.58z M721.12,389.97c6.95,8.76,13.95,18.94,21,30.52L732,426.09c-2.01-4.13-4.43-8.36-7.25-12.69
				c-8.97,4.33-17.33,8.87-25.08,13.6c-2.12,1.21-4.84,3.32-8.16,6.35l-8.61-11.33c3.12-2.92,4.68-6.25,4.68-9.97v-80.69h18.89
				c-1.51-3.12-3.43-6.75-5.74-10.88l9.67-4.68c2.92,4.73,5.64,9.92,8.16,15.56h16.47v58.48h-10.58v-3.48h-26.29v29.01
				c6.85-3.32,13.95-6.75,21.31-10.28c-2.01-3.22-4.48-6.55-7.4-9.97L721.12,389.97z M724.44,340.41h-26.29v14.05h26.29V340.41z
				 M698.15,377.28h26.29v-14.05h-26.29V377.28z M795.16,394.66c1.91,14.91-3.58,23.27-16.47,25.08c-4.53,0.6-10.38,0.4-17.53-0.6
				c-0.4-3.22-1.11-7.3-2.12-12.24c6.65,1.21,11.94,1.81,15.87,1.81c7.66,0,10.68-4.84,9.07-14.51c-1.31-7.25-7.3-15.46-17.98-24.63
				c4.63-8.26,9.97-19.19,16.02-32.79h-24.03v100.04h-10.58V326.66h46.54v10.88c-4.73,9.97-9.77,19.9-15.11,29.77
				C788.72,376.07,794.16,385.19,795.16,394.66z"/>
		</g>
	</g>
	<path class="st0" d="M103.96,530.34v21.46c0,2.03-2.64,2.82-3.75,1.12L0.34,401.12c-0.45-0.68-0.45-1.56,0-2.25l99.87-151.81
		c1.11-1.69,3.75-0.91,3.75,1.12v22.74c0,0.4-0.12,0.79-0.34,1.12l-82.6,125.76c-0.44,0.67-0.45,1.54-0.01,2.22l82.63,129.2
		C103.85,529.57,103.96,529.95,103.96,530.34z"/>
</g>
</svg>
